<svg xmlns="http://www.w3.org/2000/svg" width="169.505" height="241.099" viewBox="0 0 169.505 241.099">
  <g id="Group_27728" data-name="Group 27728" transform="translate(0 0)">
    <path id="Path_13" data-name="Path 13" d="M1173.765,402.58a84.851,84.851,0,0,0-84.753,84.753v71.593a84.753,84.753,0,1,0,169.505,0V487.333A84.851,84.851,0,0,0,1173.765,402.58Zm70.349,156.346a70.35,70.35,0,1,1-140.7,0V487.333a70.35,70.35,0,1,1,140.7,0Z" transform="translate(-1089.012 -402.58)" fill="#2e2842"/>
    <path id="Path_14" data-name="Path 14" d="M1112.366,411.278a7.2,7.2,0,0,0-7.2,7.2v40.271a7.2,7.2,0,1,0,14.4,0V418.48A7.2,7.2,0,0,0,1112.366,411.278Z" transform="translate(-1027.614 -369.518)" fill="#2e2842"/>
  </g>
</svg>
