<svg xmlns="http://www.w3.org/2000/svg" version="1.1" xmlns:xlink="http://www.w3.org/1999/xlink" xmlns:svgjs="http://svgjs.dev/svgjs" width="1440" height="720" preserveAspectRatio="none" viewBox="0 0 1440 720"><g mask="url(&quot;#SvgjsMask1559&quot;)" fill="none"><rect width="1440" height="720" x="0" y="0" fill="url(&quot;#SvgjsLinearGradient1560&quot;)"></rect><path d="M0 0L239.21 0L0 190.18z" fill="rgba(255, 255, 255, .1)"></path><path d="M0 190.18L239.21 0L745.69 0L0 347.73z" fill="rgba(255, 255, 255, .075)"></path><path d="M0 347.73L745.69 0L1072.33 0L0 451.83000000000004z" fill="rgba(255, 255, 255, .05)"></path><path d="M0 451.83000000000004L1072.33 0L1316.52 0L0 541.2z" fill="rgba(255, 255, 255, .025)"></path><path d="M1440 720L762.17 720L1440 681.77z" fill="rgba(0, 0, 0, .1)"></path><path d="M1440 681.77L762.17 720L728.4599999999999 720L1440 395.37z" fill="rgba(0, 0, 0, .075)"></path><path d="M1440 395.37L728.4599999999999 720L322.0299999999999 720L1440 344z" fill="rgba(0, 0, 0, .05)"></path><path d="M1440 344L322.03 720L295.29999999999995 720L1440 194.79z" fill="rgba(0, 0, 0, .025)"></path></g><defs><mask id="SvgjsMask1559"><rect width="1440" height="720" fill="#ffffff"></rect></mask><linearGradient x1="12.5%" y1="-25%" x2="87.5%" y2="125%" gradientUnits="userSpaceOnUse" id="SvgjsLinearGradient1560"><stop stop-color="rgba(0, 0, 0, 1)" offset="0"></stop><stop stop-color="rgba(31, 31, 31, 1)" offset="1"></stop></linearGradient></defs></svg>